<svg width="907" height="887" viewBox="0 0 907 887" fill="none" xmlns="http://www.w3.org/2000/svg">
<mask id="mask0_1_76" style="mask-type:luminance" maskUnits="userSpaceOnUse" x="0" y="0" width="907" height="887">
<path d="M0 0H907V887H0V0Z" fill="white"/>
</mask>
<g mask="url(#mask0_1_76)">
<path d="M901.52 443.109C901.52 685.335 700.726 881.718 453.01 881.718C205.294 881.718 4.5 685.335 4.5 443.109C4.5 200.882 205.294 4.5 453.01 4.5C700.726 4.5 901.52 200.882 901.52 443.109Z" fill="#304FFE" stroke="#0024F0"/>
<path d="M722.533 680.189L647.585 584.621C663.05 566.47 675.81 546.27 685.486 524.621C698.721 494.014 705.54 461.121 705.54 427.89C705.54 394.659 698.721 361.765 685.486 331.159C672.606 302.086 654.012 275.771 630.76 253.709C607.361 231.614 579.839 214.122 549.692 202.184C517.993 189.69 484.106 183.367 449.931 183.57H448.399C414.216 183.285 380.313 189.611 348.638 202.184C318.49 214.122 290.969 231.614 267.57 253.709C244.301 275.758 225.705 302.076 212.844 331.159C199.609 361.765 192.79 394.659 192.79 427.89C192.79 461.121 199.609 494.014 212.844 524.621C225.725 553.61 244.188 579.905 267.228 602.071C284.23 618.326 303.585 632.045 324.67 642.79L376.504 566.824C362.104 559.865 348.958 550.659 337.584 539.568C323.474 525.677 312.527 509.025 305.462 490.704C297.749 470.626 293.889 449.329 294.075 427.881C293.757 406.53 297.623 385.317 305.462 365.387C312.593 347.189 323.467 330.616 337.412 316.694C351.356 302.771 368.074 291.796 386.53 284.446C426.759 269.155 471.386 269.155 511.615 284.446C529.957 291.834 546.599 302.741 560.558 316.523C574.595 330.471 585.532 347.108 592.68 365.387C607.862 405.84 607.862 450.251 592.68 490.704C585.698 509.066 574.74 525.734 560.558 539.568C549.183 550.659 536.038 559.865 521.637 566.824L652.16 733.194L722.533 680.189Z" fill="white"/>
<path d="M448.233 675.855C478.457 675.855 502.958 651.893 502.958 622.336C502.958 592.778 478.457 568.817 448.233 568.817C418.009 568.817 393.508 592.778 393.508 622.336C393.508 651.893 418.009 675.855 448.233 675.855Z" fill="#FFA366"/>
</g>
</svg>
